<?xml version="1.0" encoding="utf-8" ?><svg xmlns="http://www.w3.org/2000/svg" xmlns:xlink="http://www.w3.org/1999/xlink" width="1148" height="1921" viewBox="0 0 1148 1921"><clipPath id="cl_24"><rect x="-0.00012207031" y="0.00030517578" width="1147.9999" height="1921"/></clipPath><g clip-path="url(#cl_24)"><path fill="#F6F6F6" transform="matrix(2.85572 0 0 2.85438 -1393.59 -145.573)" d="M529.159 199.025C519.801 184.281 507.559 165.126 503.113 148.19C497.286 125.991 488.203 93.2584 511.044 77.5963C517.802 72.906 528.74 71.9742 536.526 73.9364C563.132 81.5727 591.241 120.139 605.057 142.666C618.727 164.953 629.831 195.2 636.802 220.417C639.25 229.273 641.533 242.368 643.48 251.596L654.375 248.145C654.315 246.155 654.179 243.879 654.298 241.91C655.017 229.968 668.103 232.596 675.928 234.281C675.172 229.85 673.96 223.378 676.796 219.749C682.632 212.281 699.154 224.406 703.522 228.516C709.693 234.324 713.596 240.358 717.064 247.659C722.106 248.966 727.141 250.304 732.167 251.672C732.539 242.171 735.301 231.731 737.525 222.529C743.455 197.999 752.204 167.965 771.198 150.31C797.132 126.867 838.021 138.465 859.617 161.972C873.417 176.995 877.098 195.479 876.214 215.049C875.294 235.414 866.478 256.716 842.811 255.262C828.459 254.381 819.201 245.332 809.962 235.578C799.508 249.052 786.011 265.92 773.251 276.664C797.394 300.614 801.619 319.446 808.424 350.568C812.334 354.387 821.061 361.333 822.294 365.799C821.816 368.311 822.316 367.427 820.426 369.131C818.015 369.791 816.36 369.587 813.875 369.483C817.622 374.183 824.495 381.556 824.178 387.704C821.726 391.743 817.745 389.724 813.951 388.484C815.241 394.989 818.617 406.146 815.164 411.425C811.656 413.496 809.273 412.233 805.766 410.468C801.741 416.966 794.974 425.994 789.534 431.458C786.478 434.691 780.949 437.517 777.364 440.503C775.581 441.747 774.103 442.88 772.075 443.715C769.773 444.39 769.227 444.514 767.126 445.884C765.568 446.673 763.682 447.742 762.038 448.193C759.476 448.567 752.826 451.205 750.788 452.631C749.953 454.424 747.413 456.434 745.738 457.259L741.996 460.62L738.733 463.958C738.929 464.645 739.106 465.222 739.338 465.896C736.486 472.413 725.852 479.87 719.346 482.665C703.285 480.372 689.44 482.954 674.203 487.79C664.598 478.899 655.282 473.204 641.865 472.12C636.609 472.39 633.869 472.715 628.69 473.661L623.521 475.912C618.893 471.127 617.56 468.169 614.587 462.34L617.277 460.613C616.914 459.343 615.663 457.434 614.947 456.228C616.106 454.157 616.181 451.616 616.484 449.191C598.456 444.031 579.195 427.278 569.215 411.111C552.596 415.33 558.488 401.38 559.921 391.69C558.951 390.335 539.099 393.771 560.644 369.816C540.414 366.765 564.237 354.588 565.447 348.763C569.302 330.198 576.165 302.535 590.189 288.773C592.467 285.471 597.047 281.598 600.12 278.867C593.674 273.881 587.679 267.347 581.823 261.702C561.283 241.897 545.544 222.272 529.159 199.025Z"/><path fill="#3D384A" transform="matrix(2.85572 0 0 2.85438 -1393.59 -145.573)" d="M529.159 199.025C519.801 184.281 507.559 165.126 503.113 148.19C497.286 125.991 488.203 93.2584 511.044 77.5963C517.802 72.906 528.74 71.9742 536.526 73.9364C563.132 81.5727 591.241 120.139 605.057 142.666C618.727 164.953 629.831 195.2 636.802 220.417C639.25 229.273 641.533 242.368 643.48 251.596L654.375 248.145C654.315 246.155 654.179 243.879 654.298 241.91C655.017 229.968 668.103 232.596 675.928 234.281C675.172 229.85 673.96 223.378 676.796 219.749C682.632 212.281 699.154 224.406 703.522 228.516C709.693 234.324 713.596 240.358 717.064 247.659C722.106 248.966 727.141 250.304 732.167 251.672C732.539 242.171 735.301 231.731 737.525 222.529C743.455 197.999 752.204 167.965 771.198 150.31C797.132 126.867 838.021 138.465 859.617 161.972C873.417 176.995 877.098 195.479 876.214 215.049C875.294 235.414 866.478 256.716 842.811 255.262C828.459 254.381 819.201 245.332 809.962 235.578C799.508 249.052 786.011 265.92 773.251 276.664C797.394 300.614 801.619 319.446 808.424 350.568C812.334 354.387 821.061 361.333 822.294 365.799C821.816 368.311 822.316 367.427 820.426 369.131C818.015 369.791 816.36 369.587 813.875 369.483C817.622 374.183 824.495 381.556 824.178 387.704C821.726 391.743 817.745 389.724 813.951 388.484C815.241 394.989 818.617 406.146 815.164 411.425C811.656 413.496 809.273 412.233 805.766 410.468C801.741 416.966 794.974 425.994 789.534 431.458C786.478 434.691 780.949 437.517 777.364 440.503C775.581 441.747 774.103 442.88 772.075 443.715C769.773 444.39 769.227 444.514 767.126 445.884C765.568 446.673 763.682 447.742 762.038 448.193C759.476 448.567 752.826 451.205 750.788 452.631C749.953 454.424 747.413 456.434 745.738 457.259L741.996 460.62L738.733 463.958C738.929 464.645 739.106 465.222 739.338 465.896C736.486 472.413 725.852 479.87 719.346 482.665C703.285 480.372 689.44 482.954 674.203 487.79C664.598 478.899 655.282 473.204 641.865 472.12C636.609 472.39 633.869 472.715 628.69 473.661L623.521 475.912C618.893 471.127 617.56 468.169 614.587 462.34L617.277 460.613C616.914 459.343 615.663 457.434 614.947 456.228C616.106 454.157 616.181 451.616 616.484 449.191C598.456 444.031 579.195 427.278 569.215 411.111C552.596 415.33 558.488 401.38 559.921 391.69C558.951 390.335 539.099 393.771 560.644 369.816C540.414 366.765 564.237 354.588 565.447 348.763C569.302 330.198 576.165 302.535 590.189 288.773L591.064 289.107C593.678 288.25 593.824 285.754 596.933 283.93L597.903 284.983C586.594 299.739 579.1 313.626 574.078 331.748C572.517 337.379 571.333 345.099 569.73 350.283C565.697 354.169 556.704 360.7 555.531 365.189C556.84 369.643 561.545 368.315 565.554 368.083C561.888 372.212 550.137 383.168 555.568 387.973C558.688 388.925 561.534 387.972 564.619 386.95C562.954 391.872 558.386 404.915 562.608 408.893C566.673 409.687 568.092 407.154 570.813 404.384C586.532 430.906 605.89 442.105 635.938 449.656C677.322 460.056 736.935 458.089 774.127 436.203C789.232 427.313 796.189 418.979 805.298 404.417C807.652 407.006 808.855 409.127 812.002 409.542C813.52 408.685 813.612 408.657 814.701 407.328C815.76 399.958 813.449 393.179 810.987 386.425C815.504 387.919 818.87 390.151 823.089 387.232C820.444 378.439 816.182 374.771 810.269 368.112C813.26 368.277 817.928 368.991 820.325 367.446C821.55 360.676 808.206 355.121 805.977 349.675C803.454 343.514 803.205 335.827 801.324 329.368C797.027 314.62 790.856 300.025 780.865 288.187C777.272 283.913 773.626 280.753 770.041 276.526C766.587 273.48 763.183 270.644 760.177 267.149C758.577 265.729 754.99 263.63 753.029 262.406C758.258 233.769 766.687 211.86 782.65 187.779C782.044 186.167 782.071 184.531 781.958 182.795C781.993 179.561 781.527 174.644 783.018 172.121L782.669 169.68C785.237 172.408 789.287 183.177 791.839 188.389C801.911 208.959 832.803 241.534 857.537 225.108C864.954 220.183 870.111 199.493 870.45 189.668C870.468 189.194 870.473 188.72 870.464 188.246C867.801 180.78 865.601 175.724 861.295 169.207C847.911 148.949 813.619 135.62 790.448 144.287C758.117 156.381 747.056 202.152 739.623 232.164C737.906 239.097 736.442 246.968 736.301 253.96C731.609 253.201 719.278 250.306 714.719 248.634C711.26 243.055 708.307 237.278 703.663 232.546C698.333 227.115 686.738 218.415 678.944 222.995C675.62 231.049 682.775 235.073 683.248 240.907C674.231 237.313 666.557 234.264 657.679 239.263C655.934 244.578 659.655 244.586 658.843 248.497L656.143 249.572C652.756 249.684 642.872 253.589 639.171 254.968C639.51 234.191 623.394 188.943 614.718 168.931C600.947 137.163 572.811 92.3043 538.942 78.5069C532.416 75.8009 523.844 74.2079 517.226 77.6748C487.104 93.4545 506.461 147.93 516.297 169.276C518.78 176.868 525.928 188.24 530.2 195.429L529.159 199.025Z"/><path fill="#C5C7D1" transform="matrix(2.85572 0 0 2.85438 -1393.59 -145.573)" d="M782.669 169.68C785.237 172.408 789.287 183.177 791.839 188.389C801.911 208.959 832.803 241.534 857.537 225.108C864.954 220.183 870.111 199.493 870.45 189.668C870.468 189.194 870.473 188.72 870.464 188.246C875.017 206.772 876.747 243.952 852.909 250.726C831.293 256.868 810.228 233.044 800.357 216.552C791.805 202.264 787.253 188.287 783.018 172.121L782.669 169.68Z"/><path fill="#9394A1" transform="matrix(2.85572 0 0 2.85438 -1393.59 -145.573)" d="M753.029 262.406C758.258 233.769 766.687 211.86 782.65 187.779C788.343 202.703 790.995 210.211 799.682 223.804C796.799 226.534 790.87 235.26 788.191 238.99L788.026 239.548C781.762 246.597 773.718 255.495 766.666 261.663C764.718 263.316 762.143 265.646 760.177 267.149C758.577 265.729 754.99 263.63 753.029 262.406Z"/><path fill="#B5B6BE" transform="matrix(2.85572 0 0 2.85438 -1393.59 -145.573)" d="M778.557 212.803C781.463 221.642 784.676 230.376 788.191 238.99L788.026 239.548C781.762 246.597 773.718 255.495 766.666 261.663C767.552 242.219 770.274 230.763 778.557 212.803Z"/><path fill="#EB884C" transform="matrix(2.85572 0 0 2.85438 -1393.59 -145.573)" d="M616.484 449.191L619.544 450.634C621.885 451.164 624.113 451.516 626.237 452.602C627.147 455.804 628.671 456.067 629.407 458.64C632.512 460.74 645.429 465.619 648.691 466.169C648.95 467.271 649.848 468.109 650.966 468.29C652.083 468.472 653.2 467.962 653.795 466.999C683.742 473.388 712.192 471.1 740.529 459.49L741.996 460.62L738.733 463.958C738.929 464.645 739.106 465.222 739.338 465.896C736.486 472.413 725.852 479.87 719.346 482.665C703.285 480.372 689.44 482.954 674.203 487.79C664.598 478.899 655.282 473.204 641.865 472.12C636.609 472.39 633.869 472.715 628.69 473.661L623.521 475.912C618.893 471.127 617.56 468.169 614.587 462.34L617.277 460.613C616.914 459.343 615.663 457.434 614.947 456.228C616.106 454.157 616.181 451.616 616.484 449.191Z"/><path fill="#7A361C" transform="matrix(2.85572 0 0 2.85438 -1393.59 -145.573)" d="M616.484 449.191L619.544 450.634L619.433 451.779C621.924 461.161 627.118 465.976 634.499 471.951C636.749 471.986 639.685 471.946 641.865 472.12C636.609 472.39 633.869 472.715 628.69 473.661L623.521 475.912C618.893 471.127 617.56 468.169 614.587 462.34L617.277 460.613C616.914 459.343 615.663 457.434 614.947 456.228C616.106 454.157 616.181 451.616 616.484 449.191Z"/><path fill="#C5C7D1" transform="matrix(2.85572 0 0 2.85438 -1393.59 -145.573)" d="M614.587 462.34L617.277 460.613C621.291 466.795 622.734 468.889 628.69 473.661L623.521 475.912C618.893 471.127 617.56 468.169 614.587 462.34Z"/><path fill="#7A361C" transform="matrix(2.85572 0 0 2.85438 -1393.59 -145.573)" d="M619.544 450.634C621.885 451.164 624.113 451.516 626.237 452.602C627.147 455.804 628.671 456.067 629.407 458.64C626.243 457.055 622.36 453.953 619.433 451.779L619.544 450.634Z"/><path fill="#7A361C" transform="matrix(2.85572 0 0 2.85438 -1393.59 -145.573)" d="M719.605 470.032C721.218 469.751 722.752 470.837 723.023 472.453C723.293 474.068 722.197 475.595 720.58 475.855C718.978 476.113 717.468 475.029 717.2 473.428C716.932 471.827 718.006 470.311 719.605 470.032Z"/><path fill="#7A361C" transform="matrix(2.85572 0 0 2.85438 -1393.59 -145.573)" d="M676.043 476.128C677.21 475.18 678.923 475.345 679.887 476.498C680.852 477.652 680.711 479.367 679.571 480.348C678.82 480.995 677.778 481.187 676.845 480.85C675.912 480.514 675.232 479.701 675.066 478.723C674.9 477.745 675.273 476.754 676.043 476.128Z"/><path fill="#CC6A40" transform="matrix(2.85572 0 0 2.85438 -1393.59 -145.573)" d="M750.788 452.631C749.953 454.424 747.413 456.434 745.738 457.259L741.996 460.62L740.529 459.49C712.192 471.1 683.742 473.388 653.795 466.999C653.2 467.962 652.083 468.472 650.966 468.29C649.848 468.109 648.95 467.271 648.691 466.169C645.429 465.619 632.512 460.74 629.407 458.64C628.671 456.067 627.147 455.804 626.237 452.602C662.833 464.283 714.163 463.43 750.788 452.631Z"/><path fill="#7A361C" transform="matrix(2.85572 0 0 2.85438 -1393.59 -145.573)" d="M648.691 466.169C648.402 464.937 648.976 463.664 650.091 463.065C651.205 462.466 652.584 462.69 653.451 463.611C654.319 464.533 654.46 465.922 653.795 466.999C653.2 467.962 652.083 468.472 650.966 468.29C649.848 468.109 648.95 467.271 648.691 466.169Z"/><path fill="#CC6A40" transform="matrix(2.85572 0 0 2.85438 -1393.59 -145.573)" d="M740.529 459.49C742.722 457.909 743.162 457.847 745.738 457.259L741.996 460.62L740.529 459.49Z"/><path fill="#7A361C" transform="matrix(2.85572 0 0 2.85438 -1393.59 -145.573)" d="M697.949 465.302C698.54 464.875 699.32 464.816 699.969 465.148C700.618 465.48 701.026 466.147 701.026 466.876C701.026 467.605 700.618 468.272 699.969 468.604C699.066 469.067 697.958 468.755 697.429 467.889C696.899 467.023 697.126 465.896 697.949 465.302Z"/><path fill="#C5C7D1" transform="matrix(2.85572 0 0 2.85438 -1393.59 -145.573)" d="M788.026 239.548C789.192 243.256 790.525 247.974 792.068 251.456C785.094 259.989 776.249 268.187 770.041 276.526C766.587 273.48 763.183 270.644 760.177 267.149C762.143 265.646 764.718 263.316 766.666 261.663C773.718 255.495 781.762 246.597 788.026 239.548Z"/><path fill="#B5B6BE" transform="matrix(2.85572 0 0 2.85438 -1393.59 -145.573)" d="M788.191 238.99C790.87 235.26 796.799 226.534 799.682 223.804L806.461 233.345C801.529 240.005 797.409 245.147 792.068 251.456C790.525 247.974 789.192 243.256 788.026 239.548L788.191 238.99Z"/><path fill="#B5B6BE" transform="matrix(2.85572 0 0 2.85438 -1393.59 -145.573)" d="M533.373 145.692C534.23 140.662 537.487 134.453 543.495 136.823C557.516 142.354 568.313 158.521 576.139 170.79C591.284 197.22 602.643 231.215 606.432 261.316C574.705 229.926 547.591 198.516 532.425 155.913L531.664 153.773C532.547 152.363 533.046 147.655 533.373 145.692Z"/><path fill="#9E9EAA" transform="matrix(2.85572 0 0 2.85438 -1393.59 -145.573)" d="M533.373 145.692C533.42 148.482 533.937 153.82 532.425 155.913L531.664 153.773C532.547 152.363 533.046 147.655 533.373 145.692Z"/><path fill="#9394A1" transform="matrix(2.85572 0 0 2.85438 -1393.59 -145.573)" d="M533.594 123.398C536.158 124.525 542.898 122.494 547.337 125.377C582.732 148.362 601.43 198.58 615.361 236.798C618.19 244.558 619.784 258.611 622.231 263.43C618.679 265.177 617.637 265.924 614.474 268.359C611.901 266.4 609.565 263.679 606.432 261.316C602.643 231.215 591.284 197.22 576.139 170.79C568.313 158.521 557.516 142.354 543.495 136.823C537.487 134.453 534.23 140.662 533.373 145.692C533.046 147.655 532.547 152.363 531.664 153.773C528.229 145.75 527.325 130.225 533.594 123.398Z"/><path fill="#C5C7D1" transform="matrix(2.85572 0 0 2.85438 -1393.59 -145.573)" d="M516.297 169.276L516.693 169.745C522.46 176.654 530.642 189.974 536.213 197.868C550.929 218.765 569.095 237.004 589.932 251.805C593.349 254.277 602.663 261.071 606.432 261.316C609.565 263.679 611.901 266.4 614.474 268.359C611.215 271.993 608.992 274.534 605.273 277.715C604.078 278.938 598.944 284.379 597.903 284.983L596.933 283.93C593.824 285.754 593.678 288.25 591.064 289.107L590.189 288.773C592.467 285.471 597.047 281.598 600.12 278.867C593.674 273.881 587.679 267.347 581.823 261.702C561.283 241.897 545.544 222.272 529.159 199.025L530.2 195.429C525.928 188.24 518.78 176.868 516.297 169.276Z"/><path fill="#3D384A" transform="matrix(2.85572 0 0 2.85438 -1393.59 -145.573)" d="M530.2 195.429C542.375 213.457 556.212 231.94 571.686 247.174C576.576 252.031 581.618 256.733 586.804 261.273C590.741 264.686 603.058 274.317 605.273 277.715C604.078 278.938 598.944 284.379 597.903 284.983L596.933 283.93C593.824 285.754 593.678 288.25 591.064 289.107L590.189 288.773C592.467 285.471 597.047 281.598 600.12 278.867C593.674 273.881 587.679 267.347 581.823 261.702C561.283 241.897 545.544 222.272 529.159 199.025L530.2 195.429Z"/><path fill="#676775" transform="matrix(2.85572 0 0 2.85438 -1393.59 -145.573)" d="M533.594 123.398C546.052 112.902 564.279 130.839 571.997 140.476C594.556 168.646 609.48 203.873 620.895 237.917C622.658 243.176 627.54 256.504 625.843 261.337C624.389 262.31 623.806 262.688 622.231 263.43C619.784 258.611 618.19 244.558 615.361 236.798C601.43 198.58 582.732 148.362 547.337 125.377C542.898 122.494 536.158 124.525 533.594 123.398Z"/><defs><linearGradient id="gradient_0" gradientUnits="userSpaceOnUse" x1="755.62903" y1="221.08624" x2="774.83087" y2="224.16702"><stop offset="0" stop-color="#5F5D6E"/><stop offset="1" stop-color="#70727D"/></linearGradient></defs><path fill="url(#gradient_0)" transform="matrix(2.85572 0 0 2.85438 -1393.59 -145.573)" d="M781.454 182.821L781.958 182.795C782.071 184.531 782.044 186.167 782.65 187.779C766.687 211.86 758.258 233.769 753.029 262.406C750.488 261.244 750.301 261.653 749.079 259.635C749.236 245.082 765.057 207.935 772.65 195.22C775.548 190.862 778.331 187.024 781.454 182.821Z"/><path fill="#C5C7D1" transform="matrix(2.85572 0 0 2.85438 -1393.59 -145.573)" d="M772.65 195.22C772.438 187.198 772.769 170.653 781.387 166.813L782.07 167.667L782.669 169.68L783.018 172.121C781.527 174.644 781.993 179.561 781.958 182.795L781.454 182.821C778.331 187.024 775.548 190.862 772.65 195.22Z"/><path fill="#9394A1" transform="matrix(2.85572 0 0 2.85438 -1393.59 -145.573)" d="M782.07 167.667L782.669 169.68L783.018 172.121C781.527 174.644 781.993 179.561 781.958 182.795L781.454 182.821C781.258 178.621 781.173 171.666 782.07 167.667Z"/><path fill="#C5C7D1" transform="matrix(2.85572 0 0 2.85438 -1393.59 -145.573)" d="M657.679 239.263C664.737 247.796 666.68 248.561 676.726 253.307C670.892 253.019 661.384 252.365 656.143 249.572L658.843 248.497C659.655 244.586 655.934 244.578 657.679 239.263Z"/><path fill="#C5C7D1" transform="matrix(2.85572 0 0 2.85438 -1393.59 -145.573)" d="M814.701 407.328C814.127 403.862 808.604 384.426 807.336 381.713C813.05 384.135 816.996 385.926 823.089 387.232C818.87 390.151 815.504 387.919 810.987 386.425C813.449 393.179 815.76 399.958 814.701 407.328Z"/><path fill="#C5C7D1" transform="matrix(2.85572 0 0 2.85438 -1393.59 -145.573)" d="M683.248 240.907C682.775 235.073 675.62 231.049 678.944 222.995C682.859 231.886 684.975 236.125 690.427 244.097C688.396 243.476 684.513 242.571 683.248 240.907Z"/><path fill="#3D384A" transform="matrix(2.85572 0 0 2.85438 -1393.59 -145.573)" d="M604.28 336.973C604.134 334.047 603.802 335.054 605.223 332.926C613.464 329.037 650.123 352.12 661.932 346.838C664.239 345.806 664.223 343.655 666.862 343.121C668.856 343.948 668.16 343.4 669.424 345.345C669.646 348.819 667.474 350.607 665.143 352.762C663.541 357.992 658.981 359.614 654.042 361.041C650.449 368.34 645.222 372.829 636.622 372.435C631.751 372.24 627.164 370.093 623.894 366.477C619.709 361.759 619.112 357.382 619.545 351.433C612.748 348.22 606.725 344.251 604.28 336.973Z"/><path fill="#C5C7D1" transform="matrix(2.85572 0 0 2.85438 -1393.59 -145.573)" d="M604.28 336.973C609.703 339.625 616.205 342.009 621.895 344.237L619.545 351.433C612.748 348.22 606.725 344.251 604.28 336.973Z"/><path fill="#C5C7D1" transform="matrix(2.85572 0 0 2.85438 -1393.59 -145.573)" d="M665.143 352.762C663.541 357.992 658.981 359.614 654.042 361.041C654.354 358.764 654.419 358.324 655.333 356.225C657.283 354.583 662.073 353.797 665.143 352.762Z"/><path fill="#F6F6F6" transform="matrix(2.85572 0 0 2.85438 -1393.59 -145.573)" d="M625.263 348.956C626.64 348.198 628.322 348.259 629.641 349.113C630.96 349.968 631.703 351.479 631.574 353.046C631.444 354.612 630.464 355.981 629.023 356.608C626.932 357.517 624.497 356.623 623.491 354.577C622.486 352.531 623.266 350.056 625.263 348.956Z"/><path fill="#3D384A" transform="matrix(2.85572 0 0 2.85438 -1393.59 -145.573)" d="M720.745 356.012C715.555 355.031 707.227 352.98 705.404 347.253C705.939 344.736 705.519 345.695 707.448 343.568C710.17 343.294 713.136 346.447 715.944 347.494C725.728 351.142 763.815 329.291 770.302 332.065C771.736 333.551 771.688 334.565 771.956 336.573C768.972 344.034 762.876 347.35 755.72 351.085C756.384 356.44 755.568 361.331 752.235 365.684C749.211 369.582 744.726 372.075 739.819 372.583C729.191 373.725 721.632 366.355 720.745 356.012Z"/><path fill="#C5C7D1" transform="matrix(2.85572 0 0 2.85438 -1393.59 -145.573)" d="M753.52 344.292C758.589 341.695 766.5 338.77 771.956 336.573C768.972 344.034 762.876 347.35 755.72 351.085L753.52 344.292Z"/><path fill="#F6F6F6" transform="matrix(2.85572 0 0 2.85438 -1393.59 -145.573)" d="M728.526 352.214C730.651 351.439 733.013 352.439 733.935 354.504C734.858 356.569 734.027 358.996 732.032 360.062C730.611 360.821 728.884 360.724 727.557 359.809C726.23 358.894 725.524 357.315 725.728 355.716C725.932 354.117 727.012 352.766 728.526 352.214Z"/><path fill="#FDA9A8" transform="matrix(2.85572 0 0 2.85438 -1393.59 -145.573)" d="M765.489 371.046C774.082 370.29 788.037 372.872 790.107 383.026C790.654 385.708 790.069 388.497 788.489 390.733C785.069 395.644 778.58 397.086 773.075 398.108C746.783 401.02 735.438 376.237 765.489 371.046Z"/><path fill="#FDA9A8" transform="matrix(2.85572 0 0 2.85438 -1393.59 -145.573)" d="M605.307 371.151C630.78 370.64 639.394 394.416 607.8 398.372C580.469 399.248 575.988 373.278 605.307 371.151Z"/><path fill="#3D384A" transform="matrix(2.85572 0 0 2.85438 -1393.59 -145.573)" d="M679.667 367.58C684.774 367.681 691.464 367.998 696.386 367.435C698.819 368.381 700.496 369.139 701.783 371.425C702.494 378.043 695.249 380.887 690.037 382.801L690.579 390.592L691.347 390.551C697.259 390.258 714.457 390.271 714.255 399.216C713.556 399.812 712.564 400.907 711.781 400.457C703.586 395.747 704.561 396.454 696.7 395.985C685.123 395.293 676.907 403.856 670.53 404.752C669.416 403.334 669.666 404.039 669.88 401.904C672.718 396.928 680.842 393.726 686.07 391.873L685.965 383.081C678.412 380.513 665.144 372.626 679.667 367.58Z"/><path fill="#6C5266" transform="matrix(2.85572 0 0 2.85438 -1393.59 -145.573)" d="M679.667 367.58C684.774 367.681 691.464 367.998 696.386 367.435C699.955 373.587 693.738 375.217 689.126 377.301C685.744 376.155 680.464 374.93 678.397 372.398C677.764 369.878 678.047 370.52 679.667 367.58Z"/><path fill="#C5C7D1" transform="matrix(2.85572 0 0 2.85438 -1393.59 -145.573)" d="M672.564 332.291C678.355 335.274 680.216 340.232 677.829 346.193C677.012 345.965 676.489 345.611 675.737 345.207C674.305 342.413 672.85 335.465 672.564 332.291Z"/><path fill="#C5C7D1" transform="matrix(2.85572 0 0 2.85438 -1393.59 -145.573)" d="M701.12 332.99C702.105 333.335 701.733 333.143 702.484 333.978C702.3 337.406 701.147 343.587 699.083 346.35C694.065 341.65 697.283 337.137 701.12 332.99Z"/><path fill="#3D384A" transform="matrix(2.85572 0 0 2.85438 -1393.59 -145.573)" d="M750.788 452.631C752.826 451.205 759.476 448.567 762.038 448.193C759.996 450.662 760.315 454.515 760.168 457.852L765.345 461.139L769.301 465.813C770.443 467.358 775.426 473.917 776.033 475.212C777.4 478.517 778.039 479.805 779.914 482.837C788.776 502.92 792.202 527.46 774.395 544.162L776.372 552.044C792.729 544.669 798.888 552.021 797.966 568.224C806.197 575.017 808.869 581.55 801.238 590.268C800.954 590.591 800.667 590.912 800.377 591.229C793.378 596.911 799.461 602.81 790.036 606.874C786.084 607.969 782.154 608.514 778.11 609.164C776.991 625.01 769.588 655.554 764.797 670.712C779.126 669.955 793.068 671.369 804.365 681.21C811.036 687.022 814.533 695.703 807.284 702.567C796.848 712.706 781.71 712.056 768.035 711.838C752.352 711.587 729.789 710.204 717.263 699.375C712.698 695.428 711.343 676.565 709.321 669.991C707.296 663.408 705.997 654.649 703.902 647.847C703.131 644.951 701.625 640.813 701.083 638.186C691.889 638.537 685.018 638.607 675.751 638.23C672.099 651.241 668.547 663.738 666.067 677.015C665.408 680.542 663.522 695.096 662.424 696.804C651.255 714.194 593.614 711.285 579.308 709.178C562.947 704.559 559.712 690.419 573.338 679.484C576.692 676.793 581.67 675.367 585.793 674.125C594.037 670.733 603.529 671.027 612.266 671.043C597.454 630.562 595.424 587.026 601.101 544.602C594.771 538.322 591.853 535.078 588.793 526.581C577.302 506.239 597.873 468.596 614.947 456.228C615.663 457.434 616.914 459.343 617.277 460.613L614.587 462.34C617.56 468.169 618.893 471.127 623.521 475.912L628.69 473.661C633.869 472.715 636.609 472.39 641.865 472.12C655.282 473.204 664.598 478.899 674.203 487.79C689.44 482.954 703.285 480.372 719.346 482.665C725.852 479.87 736.486 472.413 739.338 465.896C739.106 465.222 738.929 464.645 738.733 463.958L741.996 460.62L745.738 457.259C747.413 456.434 749.953 454.424 750.788 452.631Z"/><path fill="#F6F6F6" transform="matrix(2.85572 0 0 2.85438 -1393.59 -145.573)" d="M614.587 462.34C617.56 468.169 618.893 471.127 623.521 475.912C612.615 483.239 610.476 490.621 615.647 502.636C629.108 515.759 642.669 509.788 656.564 501.658C677.545 488.599 714.028 478.398 734.889 496.404C718.682 496.831 712.794 502.011 699.026 509.057C675.583 521.056 653.503 536.343 626.13 535.833C603.65 535.414 594.828 524.927 590.381 503.814C593.805 489.399 602.624 471.434 614.587 462.34Z"/><path fill="#C5C7D1" transform="matrix(2.85572 0 0 2.85438 -1393.59 -145.573)" d="M656.564 501.658C649.841 514.758 621.39 523.247 615.647 502.636C629.108 515.759 642.669 509.788 656.564 501.658Z"/><path fill="#F6F6F6" transform="matrix(2.85572 0 0 2.85438 -1393.59 -145.573)" d="M750.788 452.631C752.826 451.205 759.476 448.567 762.038 448.193C759.996 450.662 760.315 454.515 760.168 457.852C758.626 459.5 758.186 459.876 757.306 462.013L759.325 463.085C770.601 470.187 778.777 490.45 781.795 502.99C777.072 544.402 733.046 541.304 704.409 528.241C709.828 523.531 713.836 520.171 719.721 516.038C723.648 513.28 730.288 509.324 733.59 506.43C738.127 506.047 753.268 507.226 755.225 504.464C753.254 501.548 749.227 501.521 745.969 501.087C745.957 496.808 746.283 493.887 744.751 489.912L743.901 489.541C742.397 491.597 742.41 494.668 742.164 497.29C740.351 495.071 738.151 492.777 736.192 490.648L730.275 486.654C728.366 486.042 725.646 484.751 723.744 483.911L719.346 482.665C725.852 479.87 736.486 472.413 739.338 465.896C739.106 465.222 738.929 464.645 738.733 463.958L741.996 460.62L745.738 457.259C747.413 456.434 749.953 454.424 750.788 452.631Z"/><path fill="#7A361C" transform="matrix(2.85572 0 0 2.85438 -1393.59 -145.573)" d="M750.788 452.631C752.826 451.205 759.476 448.567 762.038 448.193C759.996 450.662 760.315 454.515 760.168 457.852C758.626 459.5 758.186 459.876 757.306 462.013L759.325 463.085C754.079 475.1 745.851 482.007 736.192 490.648L730.275 486.654C728.366 486.042 725.646 484.751 723.744 483.911L719.346 482.665C725.852 479.87 736.486 472.413 739.338 465.896C739.106 465.222 738.929 464.645 738.733 463.958L741.996 460.62L745.738 457.259C747.413 456.434 749.953 454.424 750.788 452.631Z"/><path fill="#CC6A40" transform="matrix(2.85572 0 0 2.85438 -1393.59 -145.573)" d="M738.733 463.958C743.284 463.051 752.411 454.621 756.941 452.064C750.954 464.877 736.374 478.531 723.744 483.911L719.346 482.665C725.852 479.87 736.486 472.413 739.338 465.896C739.106 465.222 738.929 464.645 738.733 463.958Z"/><path fill="#C5C7D1" transform="matrix(2.85572 0 0 2.85438 -1393.59 -145.573)" d="M757.306 462.013L759.325 463.085C754.079 475.1 745.851 482.007 736.192 490.648L730.275 486.654C741.373 478.554 748.894 472.759 757.306 462.013Z"/><path fill="#C5C7D1" transform="matrix(2.85572 0 0 2.85438 -1393.59 -145.573)" d="M734.889 496.404C736.581 498.332 737.32 499.256 738.737 501.406C713.212 503.863 693.692 523.691 672.209 536.511C648.5 550.66 605.306 559.477 592.009 526.596C589.031 519.802 589.291 510.957 590.381 503.814C594.828 524.927 603.65 535.414 626.13 535.833C653.503 536.343 675.583 521.056 699.026 509.057C712.794 502.011 718.682 496.831 734.889 496.404Z"/><path fill="#C5C7D1" transform="matrix(2.85572 0 0 2.85438 -1393.59 -145.573)" d="M781.795 502.99C788.809 559.921 729.111 555.562 694.474 537.6C691.803 536.215 688.939 534.959 686.254 533.536C700.348 523.142 716.486 510.192 733.59 506.43C730.288 509.324 723.648 513.28 719.721 516.038C713.836 520.171 709.828 523.531 704.409 528.241C733.046 541.304 777.072 544.402 781.795 502.99Z"/><path fill="#C5C7D1" transform="matrix(2.85572 0 0 2.85438 -1393.59 -145.573)" d="M634.596 553.665C654.743 551.467 664.06 546.885 681.686 536.68C709.151 549.961 740.551 563.322 770.01 547.111C772.672 560.011 774.599 577.889 773.278 591.175C773.758 614.749 768.315 649.16 759.089 671.467C755.821 672.577 745.838 675.684 744.67 678.993C747.962 680.718 757.722 677.015 761.583 675.929C778.3 671.23 801.709 674.794 808.009 693.551L801.398 695.875C800.435 692.725 799.969 689.633 796.535 688.515C793.778 690.762 796.744 694.413 798.145 697.139C798.361 699.81 798.932 702.261 797.458 704.389C793.514 707.917 787.044 707.35 781.392 707.67L781.469 699.504C780.391 695.922 779.565 693.069 776.658 690.529L775.74 690.784C775.004 693.839 776.565 696.829 777.677 699.904L777.177 707.791C765.883 708.584 724.922 708.551 717.556 694.272C715.681 690.636 713.976 673.857 712.967 668.277C711.093 657.848 708.577 647.544 705.432 637.424C712.268 636.026 729.8 631.408 732.863 624.928L732.193 623.945C730.158 624.07 725.808 626.567 723.621 627.354C691.905 638.772 674.024 635.387 644.907 623.78L643.935 624.407L644.351 625.882C650.739 632.792 662.688 635.338 671.65 637.492C665.526 656.569 662.805 671.179 660.241 690.787C657.94 708.389 612.234 707.695 599.507 707.464L598.844 699.924C599.606 696.253 602.441 693.408 601.611 690.466L600.025 690.755C596.699 693.042 596.215 695.883 595.333 699.726C595.415 702.011 595.914 706.167 594.799 707.856C588.25 707.548 585.497 707.258 579.311 705.667C578.616 702.096 578.558 700.522 578.474 696.853C580.468 693.666 582.319 691.762 581.733 688.316L580.609 688.092C577.041 690.155 576.763 691.868 575.338 695.682C574.971 698.687 575.345 700.922 572.842 702.684C569.154 701.552 568.388 697.013 568.833 693.598C569.191 692.457 569.62 691.339 570.118 690.252C573.818 682.244 580.454 678.998 588.182 676.135C595.564 673.704 602.299 673.496 609.978 674.671C614.77 675.405 628.313 680.936 631.976 678.841C630.207 675.417 621.132 672.387 617.281 670.798C608.074 646.791 603.327 616.678 603.3 590.956C602.443 584.691 603.934 561.889 604.729 555.629L606.049 548.552C616.028 553.251 623.835 553.665 634.596 553.665Z"/><path fill="#F6F6F6" transform="matrix(2.85572 0 0 2.85438 -1393.59 -145.573)" d="M603.3 590.956C607.306 601.067 610.416 608.6 617.672 616.878C632.527 633.825 653.396 639.889 653.35 666.088C653.327 679.349 652.149 690.005 637.448 694.974C626.469 698.685 610.308 700.488 598.844 699.924C599.606 696.253 602.441 693.408 601.611 690.466L600.025 690.755C596.699 693.042 596.215 695.883 595.333 699.726C595.415 702.011 595.914 706.167 594.799 707.856C588.25 707.548 585.497 707.258 579.311 705.667C578.616 702.096 578.558 700.522 578.474 696.853C580.468 693.666 582.319 691.762 581.733 688.316L580.609 688.092C577.041 690.155 576.763 691.868 575.338 695.682C574.971 698.687 575.345 700.922 572.842 702.684C569.154 701.552 568.388 697.013 568.833 693.598C569.191 692.457 569.62 691.339 570.118 690.252C573.818 682.244 580.454 678.998 588.182 676.135C595.564 673.704 602.299 673.496 609.978 674.671C614.77 675.405 628.313 680.936 631.976 678.841C630.207 675.417 621.132 672.387 617.281 670.798C608.074 646.791 603.327 616.678 603.3 590.956Z"/><path fill="#B5B6BE" transform="matrix(2.85572 0 0 2.85438 -1393.59 -145.573)" d="M579.311 705.667C578.616 702.096 578.558 700.522 578.474 696.853C583.866 697.776 589.98 698.979 595.333 699.726C595.415 702.011 595.914 706.167 594.799 707.856C588.25 707.548 585.497 707.258 579.311 705.667Z"/><path fill="#B5B6BE" transform="matrix(2.85572 0 0 2.85438 -1393.59 -145.573)" d="M568.833 693.598C570.661 694.176 573.649 695.017 575.338 695.682C574.971 698.687 575.345 700.922 572.842 702.684C569.154 701.552 568.388 697.013 568.833 693.598Z"/><path fill="#F6F6F6" transform="matrix(2.85572 0 0 2.85438 -1393.59 -145.573)" d="M773.278 591.175C773.758 614.749 768.315 649.16 759.089 671.467C755.821 672.577 745.838 675.684 744.67 678.993C747.962 680.718 757.722 677.015 761.583 675.929C778.3 671.23 801.709 674.794 808.009 693.551L801.398 695.875C800.435 692.725 799.969 689.633 796.535 688.515C793.778 690.762 796.744 694.413 798.145 697.139C798.361 699.81 798.932 702.261 797.458 704.389C793.514 707.917 787.044 707.35 781.392 707.67L781.469 699.504C780.391 695.922 779.565 693.069 776.658 690.529L775.74 690.784C775.004 693.839 776.565 696.829 777.677 699.904C744.868 700.922 709.38 695.523 727.439 647.991C729.769 641.858 741.023 633.616 746.523 629.21C757.69 620.262 769.784 605.279 773.278 591.175Z"/><path fill="#B5B6BE" transform="matrix(2.85572 0 0 2.85438 -1393.59 -145.573)" d="M798.145 697.139C798.361 699.81 798.932 702.261 797.458 704.389C793.514 707.917 787.044 707.35 781.392 707.67L781.469 699.504C787.043 698.829 792.603 698.041 798.145 697.139Z"/><path fill="#B5B6BE" transform="matrix(2.85572 0 0 2.85438 -1393.59 -145.573)" d="M606.049 548.552C616.028 553.251 623.835 553.665 634.596 553.665C631.485 554.371 631.711 553.804 629.946 555.795C628.784 559.06 629.555 562.389 629.367 566.017C619.798 564.633 611.224 563.463 604.729 555.629L606.049 548.552Z"/><path fill="#F6F6F6" transform="matrix(2.85572 0 0 2.85438 -1393.59 -145.573)" d="M682.42 550.2C686.119 550.28 694.813 555.439 699.044 557.014C715.633 563.19 729.145 567.101 746.818 567.095C742.686 599.094 725.031 613.847 694.339 618.304C693.968 618.354 693.595 618.398 693.223 618.434C678.142 620.001 659.762 615.326 648.082 605.497C635.258 594.705 630.673 582.114 629.136 565.994C651.395 565.541 663.209 560.304 682.42 550.2Z"/><path fill="#F6F6F6" transform="matrix(2.85572 0 0 2.85438 -1393.59 -145.573)" d="M621.846 493.575C623.087 491.916 625.37 489.269 625.69 487.422C623.595 488.586 619.975 491.303 618.299 491.185C621.162 476.631 638.301 474.847 650.034 478.805C656.568 481.009 660.539 483.351 665.727 487.659L667.595 489.574C666.943 491.623 640.949 506.012 635.34 504.919C632.41 502.625 633.966 499.64 635.551 496.656L635.947 494.788L635.097 494.652C634.03 495.629 632.686 496.775 631.786 497.873C630.349 502.061 629.858 505.24 624.537 504.158C620.839 501.16 620.644 497.813 621.846 493.575Z"/><path fill="#C5C7D1" transform="matrix(2.85572 0 0 2.85438 -1393.59 -145.573)" d="M665.727 487.659L667.595 489.574C666.943 491.623 640.949 506.012 635.34 504.919C632.41 502.625 633.966 499.64 635.551 496.656L635.86 497.79C640.806 499.96 660.982 490.096 665.727 487.659Z"/><path fill="#C5C7D1" transform="matrix(2.85572 0 0 2.85438 -1393.59 -145.573)" d="M621.846 493.575C625.106 495.257 628.209 497.065 631.786 497.873C630.349 502.061 629.858 505.24 624.537 504.158C620.839 501.16 620.644 497.813 621.846 493.575Z"/><path fill="#C5C7D1" transform="matrix(2.85572 0 0 2.85438 -1393.59 -145.573)" d="M788.241 604.625C785.294 605.038 782.079 605.609 779.361 604.47C778.346 603.154 778.923 567.48 777.505 562.488C775.644 555.943 786.261 548.299 791.919 555.431C794.555 558.753 793.091 564.327 792.464 568.363C801.88 574.283 806.463 580.286 797.229 589.801C790.501 594.582 796.325 598.476 788.241 604.625Z"/><path fill="#B5B6BE" transform="matrix(2.85572 0 0 2.85438 -1393.59 -145.573)" d="M801.398 695.875L808.009 693.551C807.887 697.474 807.392 699.383 804.562 702.279L802.969 702.54C801.076 700.627 801.536 699.033 801.398 695.875Z"/><path fill="#3D384A" transform="matrix(2.85572 0 0 2.85438 -1393.59 -145.573)" d="M688.634 69.9832C705.665 67.7139 718.023 74.9128 723.583 91.0624C749.359 88.036 760.962 109.346 743.321 126.773C743.76 127.709 744.165 128.662 744.535 129.627C748.383 139.842 744.627 149.084 734.036 152.601C724.559 155.748 717.814 153.467 709.372 149.304C705.604 152.95 704.092 154.116 699.526 156.767L698.906 156.988C690.043 160.102 684.323 157.397 676.396 153.608C657.262 160.761 642.243 154.56 647.334 132.291C637.466 122.917 630.562 112.87 642.653 100.085C648.337 94.0761 656.18 93.7476 664.002 94.046C669.435 79.6246 673.586 74.2272 688.634 69.9832Z"/><path fill="#F6F6F6" transform="matrix(2.85572 0 0 2.85438 -1393.59 -145.573)" d="M666.576 98.5625C671.136 77.8838 686.978 66.3175 708.619 75.4048C716.195 78.5862 719.795 87.0701 721.954 94.6087C734.049 91.5005 741.45 91.9517 748.169 103.368C751.53 114.217 748.6 119.02 740.298 125.658C744.419 134.418 746.84 144.045 735.579 149.095C726.667 153.091 717.673 149.619 709.434 145.661C698.46 155.597 690.81 160.444 677.626 149.799C670.605 152.303 663.571 155.356 656.318 151.926C647.16 147.596 648.586 137.866 651.4 130.151C642.304 124.63 635.503 116.813 641.766 106.063C648.002 95.9639 656.376 95.5513 666.576 98.5625Z"/><path fill="#C5C7D1" transform="matrix(2.85572 0 0 2.85438 -1393.59 -145.573)" d="M748.169 103.368C751.53 114.217 748.6 119.02 740.298 125.658C744.419 134.418 746.84 144.045 735.579 149.095C726.667 153.091 717.673 149.619 709.434 145.661C698.46 155.597 690.81 160.444 677.626 149.799C670.605 152.303 663.571 155.356 656.318 151.926C647.16 147.596 648.586 137.866 651.4 130.151C642.304 124.63 635.503 116.813 641.766 106.063C644.012 118.434 647.466 120.691 659.358 123.61C655.842 141.861 665.746 144.247 680.947 138.806C694.217 148.155 698.349 145.524 709.614 135.501C722.79 142.249 740.395 144.388 735.129 123.609C743.802 116.25 745.922 114.184 748.169 103.368Z"/><path fill="#3D384A" transform="matrix(2.85572 0 0 2.85438 -1393.59 -145.573)" d="M675.4 101.066C680.038 102.017 687.85 106.101 690.207 110.313C690.294 112.71 690.588 111.825 689.159 113.654L686.938 113.704L686.083 114.868C686.076 117.804 686.134 118.292 684.415 120.658C681.161 121.298 680.378 121.153 677.934 119.235C676.827 117.108 676.808 116.821 677.015 114.425C678.172 112.447 678.785 112.759 681.388 111.758L681.793 110.764C679.35 106.105 674.094 109.131 675.4 101.066Z"/><path fill="#3D384A" transform="matrix(2.85572 0 0 2.85438 -1393.59 -145.573)" d="M705.511 113.66C704.326 113.772 703.418 113.366 702.27 113.008C698.994 108.989 711.879 101.089 716.751 102.165L716.966 103.347C715.668 107.115 713.49 108.297 710.118 110.313C719.283 114.32 715.128 122.019 708.311 120.25C706.19 118.465 705.808 117.648 705.577 114.809C705.548 114.426 705.526 114.043 705.511 113.66Z"/><path fill="#3D384A" transform="matrix(2.85572 0 0 2.85438 -1393.59 -145.573)" d="M695.83 121.652C701.285 121.494 710.021 124.23 709.113 130.938C705.698 132.447 703.646 128.604 698.115 126.901L697.449 126.702C692.059 128.004 687.689 133.935 684.597 131.542C683.686 125.771 691.579 122.978 695.83 121.652Z"/><path fill="#7A361C" transform="matrix(2.85572 0 0 2.85438 -1393.59 -145.573)" d="M789.534 431.458C794.719 431.196 799.726 431.466 804.775 432.623C836.999 440.005 812.996 457.091 795.79 461.445C815.922 480.848 805.612 495.123 779.914 482.837C778.039 479.805 777.4 478.517 776.033 475.212C775.426 473.917 770.443 467.358 769.301 465.813L765.345 461.139L760.168 457.852C760.315 454.515 759.996 450.662 762.038 448.193C763.682 447.742 765.568 446.673 767.126 445.884C769.227 444.514 769.773 444.39 772.075 443.715C774.103 442.88 775.581 441.747 777.364 440.503C780.949 437.517 786.478 434.691 789.534 431.458Z"/><path fill="#EB884C" transform="matrix(2.85572 0 0 2.85438 -1393.59 -145.573)" d="M786.738 436.44C796.954 433.83 808.837 437.541 818.312 441.669C807.17 454.837 793.594 462.262 776.777 453.615L776.187 452.505C777.748 448.134 789.669 449.506 792.387 446.213C790.554 443.892 787.462 444.122 784.708 444.003C784.978 440.9 785.572 441.545 787.568 438.361L786.738 436.44Z"/><path fill="#CC6A40" transform="matrix(2.85572 0 0 2.85438 -1393.59 -145.573)" d="M775.366 459.327C792.943 462.479 797.398 465.22 804.667 482.28C791.762 483.306 787.303 481.758 776.033 475.212C775.426 473.917 770.443 467.358 769.301 465.813C772.397 463.216 773.067 462.608 775.366 459.327Z"/><path fill="#7A361C" transform="matrix(2.85572 0 0 2.85438 -1393.59 -145.573)" d="M782.371 466.114C783.827 465.464 785.535 466.086 786.233 467.52C786.93 468.954 786.364 470.682 784.954 471.426C784 471.93 782.847 471.873 781.947 471.279C781.046 470.684 780.541 469.646 780.63 468.571C780.718 467.495 781.385 466.554 782.371 466.114Z"/><path fill="#CC6A40" transform="matrix(2.85572 0 0 2.85438 -1393.59 -145.573)" d="M767.126 445.884C771.123 451.509 773.413 457.654 765.345 461.139L760.168 457.852C760.315 454.515 759.996 450.662 762.038 448.193C763.682 447.742 765.568 446.673 767.126 445.884Z"/><path fill="#CC6A40" transform="matrix(2.85572 0 0 2.85438 -1393.59 -145.573)" d="M786.738 436.44L787.568 438.361C785.572 441.545 784.978 440.9 784.708 444.003C781.177 444.85 776.134 447.807 773.083 446.494L772.075 443.715C774.103 442.88 775.581 441.747 777.364 440.503C781.273 439.747 783.316 438.37 786.738 436.44Z"/></g></svg>